<?xml version="1.0" encoding="UTF-8" standalone="no"?>
<!-- Created with Inkscape (http://www.inkscape.org/) -->

<svg
   xmlns:dc="http://purl.org/dc/elements/1.1/"
   xmlns:cc="http://creativecommons.org/ns#"
   xmlns:rdf="http://www.w3.org/1999/02/22-rdf-syntax-ns#"
   xmlns:svg="http://www.w3.org/2000/svg"
   xmlns="http://www.w3.org/2000/svg"
   xmlns:sodipodi="http://sodipodi.sourceforge.net/DTD/sodipodi-0.dtd"
   xmlns:inkscape="http://www.inkscape.org/namespaces/inkscape"
   width="320mm"
   height="200mm"
   viewBox="0 0 320 200"
   version="1.1"
   id="svg954"
   inkscape:version="0.92.5 (0.92.4+202005162354+6c0c36e)"
   sodipodi:docname="LEVEL-320x200.svg">
  <defs
     id="defs948" />
  <sodipodi:namedview
     id="base"
     pagecolor="#ffffff"
     bordercolor="#666666"
     borderopacity="1.0"
     inkscape:pageopacity="0.0"
     inkscape:pageshadow="2"
     inkscape:zoom="0.7"
     inkscape:cx="449.80992"
     inkscape:cy="493.02412"
     inkscape:document-units="mm"
     inkscape:current-layer="layer1"
     showgrid="false"
     inkscape:window-width="1918"
     inkscape:window-height="1058"
     inkscape:window-x="0"
     inkscape:window-y="20"
     inkscape:window-maximized="1" />
  <metadata
     id="metadata951">
    <rdf:RDF>
      <cc:Work
         rdf:about="">
        <dc:format>image/svg+xml</dc:format>
        <dc:type
           rdf:resource="http://purl.org/dc/dcmitype/StillImage" />
        <dc:title></dc:title>
      </cc:Work>
    </rdf:RDF>
  </metadata>
  <g
     inkscape:label="Layer 1"
     inkscape:groupmode="layer"
     id="layer1"
     transform="translate(0,-97)">
    <path
       style="fill:#b3b3b3;fill-rule:evenodd;stroke:#000000;stroke-width:0.26458332px;stroke-linecap:butt;stroke-linejoin:miter;stroke-opacity:1"
       d="m -13.229167,278.85714 38.931548,-6.80357 120.718929,-0.33322 50.83316,7.63918 39.07518,0.82167 64.31048,-2.83016 19.38491,-0.38378 h 23.17735 l 2.26785,15.875 -30.23809,7.9375 -43.84524,13.22917 -79.31569,7.18155 h -48.81825 l -33.63988,-11.71727 -36.474024,-1.88908 -24.198967,-1.13473 -30.04129,-3.02381 -27.9702374,-1.5119 -2.6458336,-20.03274 z"
       id="path1522"
       inkscape:connector-curvature="0"
       sodipodi:nodetypes="cccccccccccccccccccc" />
    <path
       style="fill:#999999;fill-rule:evenodd;stroke:#000000;stroke-width:0.26458332px;stroke-linecap:butt;stroke-linejoin:miter;stroke-opacity:1"
       d="m -6.4255951,87.979168 -6.4783079,18.954262 -5.053974,34.09634 -0.383277,91.1629 -5.09337,65.56328 18.8298657,6.80649 20.7144493,-6.70703 2.40163,-22.17395 -2.062995,-76.48443 -3.994746,-56.34122 -1.870347,-59.412356 z"
       id="path1524"
       inkscape:connector-curvature="0"
       sodipodi:nodetypes="cccccccccccc" />
    <path
       style="fill:#808080;fill-rule:evenodd;stroke:#000000;stroke-width:0.26458332px;stroke-linecap:butt;stroke-linejoin:miter;stroke-opacity:1"
       d="m 319.38989,85.711311 -6.12217,25.989699 -3.81543,20.71152 -4.73207,26.52286 -2.93592,22.10736 -1.34713,19.38218 -1.79603,30.98035 -0.41792,39.24186 v 9.72191 l 16.28521,5.66964 h 18.11062 l 5.66963,-14.45979 -0.0645,-151.80999 -1.49883,-20.260273 0.0514,-14.175302 -17.38688,0.377976 z"
       id="path1526"
       inkscape:connector-curvature="0"
       sodipodi:nodetypes="ccccccccccccccccc" />
    <path
       style="fill:#666666;fill-rule:evenodd;stroke:#000000;stroke-width:0.26458332px;stroke-linecap:butt;stroke-linejoin:miter;stroke-opacity:1"
       d="m 122.46428,277.72321 -2.84851,-23.63143 -5.88947,-45.21731 -1.82294,-22.48841 -0.72871,-17.18551 -1.92361,-39.20873 11.70134,-5.72694 1.13634,19.44985 -1.51994,24.6522 -0.75028,26.79142 0.2314,20.4 7.75622,30.85939 3.33805,14.85113 0.39156,17.96625 z"
       id="path1528"
       inkscape:connector-curvature="0"
       sodipodi:nodetypes="ccccccccccccccc" />
    <path
       style="fill:#808080;fill-rule:evenodd;stroke:#000000;stroke-width:0.26458332px;stroke-linecap:butt;stroke-linejoin:miter;stroke-opacity:1"
       d="m 205.61905,123.50893 -15.1805,29.76713 -9.44536,25.78375 -3.36868,37.41616 -1.75374,40.99834 -3.51363,28.53105 10.87734,4.6909 4.9943,-15.17673 2.69837,-18.59997 3.91738,-19.77367 0.53122,-14.86383 0.14693,-52.60903 8.01969,-19.23659 6.58756,-16.69732 z"
       id="path1530"
       inkscape:connector-curvature="0"
       sodipodi:nodetypes="ccccccccccccccc" />
    <path
       style="fill:#000000;fill-rule:evenodd;stroke:#000000;stroke-width:0.26458332px;stroke-linecap:butt;stroke-linejoin:miter;stroke-opacity:1"
       d="M -23.434524,103.09822 8.3993376,106.84697 57.324164,73.035992 92.523363,55.439997 150.333,36.676918 l 37.87721,5.83968 42.37634,12.583669 28.74944,20.985419 39.39974,17.405597 37.2851,2.047409 L 335.02784,76.552911 253.13148,15.947508 207.39158,-5.2975307 169.96213,4.2396074 122.89575,29.189151 82.161846,36.992249 31.687708,37.771777 4.5806226,56.940213 -21.520578,96.757641 Z"
       id="path1532"
       inkscape:connector-curvature="0"
       sodipodi:nodetypes="cccccccccccccccccccc" />
    <path
       style="fill:#808080;fill-rule:evenodd;stroke:#000000;stroke-width:0.26458332px;stroke-linecap:butt;stroke-linejoin:miter;stroke-opacity:1"
       d="m 242.66071,190.78869 -4.64507,1.06591 -6.58495,3.77193 -3.49707,5.27931 -0.014,9.91558 4.0805,2.06496 5.86237,0.52264 6.98197,0.0283 4.70732,-0.32855 3.34943,-2.68932 2.23269,-4.1821 v -8.26719 l -6.52171,-5.70788 -5.95148,-1.47361 z"
       id="path1534"
       inkscape:connector-curvature="0"
       sodipodi:nodetypes="ccccccccccccccc" />
  </g>
</svg>
