<?xml version="1.0" encoding="UTF-8" standalone="no"?>
<!-- Created with Inkscape (http://www.inkscape.org/) -->

<svg
   xmlns:dc="http://purl.org/dc/elements/1.1/"
   xmlns:cc="http://creativecommons.org/ns#"
   xmlns:rdf="http://www.w3.org/1999/02/22-rdf-syntax-ns#"
   xmlns:svg="http://www.w3.org/2000/svg"
   xmlns="http://www.w3.org/2000/svg"
   xmlns:sodipodi="http://sodipodi.sourceforge.net/DTD/sodipodi-0.dtd"
   xmlns:inkscape="http://www.inkscape.org/namespaces/inkscape"
   width="320mm"
   height="200mm"
   viewBox="0 0 320 200"
   version="1.1"
   id="svg954"
   inkscape:version="0.92.5 (0.92.4+202005162354+6c0c36e)"
   sodipodi:docname="LEVEL-320x200.svg">
  <defs
     id="defs948" />
  <sodipodi:namedview
     id="base"
     pagecolor="#ffffff"
     bordercolor="#666666"
     borderopacity="1.0"
     inkscape:pageopacity="0.0"
     inkscape:pageshadow="2"
     inkscape:zoom="0.5"
     inkscape:cx="716.1094"
     inkscape:cy="225.36156"
     inkscape:document-units="mm"
     inkscape:current-layer="layer1"
     showgrid="false"
     inkscape:window-width="1918"
     inkscape:window-height="1058"
     inkscape:window-x="0"
     inkscape:window-y="20"
     inkscape:window-maximized="1" />
  <metadata
     id="metadata951">
    <rdf:RDF>
      <cc:Work
         rdf:about="">
        <dc:format>image/svg+xml</dc:format>
        <dc:type
           rdf:resource="http://purl.org/dc/dcmitype/StillImage" />
        <dc:title></dc:title>
      </cc:Work>
    </rdf:RDF>
  </metadata>
  <g
     inkscape:label="Layer 1"
     inkscape:groupmode="layer"
     id="layer1"
     transform="translate(0,-97)">
    <path
       style="fill:#666666;fill-rule:evenodd;stroke:#000000;stroke-width:0.26458332px;stroke-linecap:butt;stroke-linejoin:miter;stroke-opacity:1"
       d="m 345.73985,-805.32643 46.39798,-130.21371 -134.70383,-53.88154 29.93419,242.46691 z"
       id="path1915"
       inkscape:connector-curvature="0"
       sodipodi:nodetypes="ccccc" />
    <path
       style="fill:#4d4d4d;fill-rule:evenodd;stroke:#000000;stroke-width:0.26458332px;stroke-linecap:butt;stroke-linejoin:miter;stroke-opacity:1"
       d="m 597.18702,-781.37906 -41.90786,10.47697 -94.29268,-166.13476 116.74332,-70.34535 z"
       id="path1913"
       inkscape:connector-curvature="0"
       sodipodi:nodetypes="ccccc" />
    <path
       style="fill:#808080;fill-rule:evenodd;stroke:#000000;stroke-width:0.26458332px;stroke-linecap:butt;stroke-linejoin:miter;stroke-opacity:1"
       d="m 647.69999,-559.19166 -48.68333,14.81666 -66.675,-268.81666 68.79167,-25.4 z"
       id="path1911"
       inkscape:connector-curvature="0"
       sodipodi:nodetypes="ccccc" />
    <path
       style="fill:#808080;fill-rule:evenodd;stroke:#000000;stroke-width:0.26458332px;stroke-linecap:butt;stroke-linejoin:miter;stroke-opacity:1"
       d="M 277.28333,-546.49166 257.175,-812.13333 355.6,-833.29999 317.5,-531.675 Z"
       id="path1909"
       inkscape:connector-curvature="0"
       sodipodi:nodetypes="ccccc" />
    <path
       style="fill:#999999;fill-rule:evenodd;stroke:#000000;stroke-width:0.26458332px;stroke-linecap:butt;stroke-linejoin:miter;stroke-opacity:1"
       d="m 579.96666,-451.24166 7.40833,-155.575 137.58333,38.1 -89.95833,187.325 z"
       id="path1907"
       inkscape:connector-curvature="0"
       sodipodi:nodetypes="ccccc" />
    <path
       style="fill:#999999;fill-rule:evenodd;stroke:#000000;stroke-width:0.26458332px;stroke-linecap:butt;stroke-linejoin:miter;stroke-opacity:1"
       d="m 349.25,-440.65833 -25.4,-151.34166 -78.84584,3.175 57.67917,181.50416 z"
       id="path1905"
       inkscape:connector-curvature="0"
       sodipodi:nodetypes="ccccc" />
    <path
       style="fill:#808080;fill-rule:evenodd;stroke:#000000;stroke-width:0.26458332px;stroke-linecap:butt;stroke-linejoin:miter;stroke-opacity:1"
       d="m 541.86666,-188.775 -31.75,-194.73333 76.2,-96.30833 64.55833,5.29166 z"
       id="path1901"
       inkscape:connector-curvature="0"
       sodipodi:nodetypes="ccccc" />
    <path
       style="fill:#999999;fill-rule:evenodd;stroke:#000000;stroke-width:0.26458332px;stroke-linecap:butt;stroke-linejoin:miter;stroke-opacity:1"
       d="m 428.62499,-389.85833 -86.78333,-79.375 -38.1,23.28333 108.40339,257.76489 z"
       id="path1899"
       inkscape:connector-curvature="0"
       sodipodi:nodetypes="ccccc" />
    <path
       style="fill:#666666;fill-rule:evenodd;stroke:#000000;stroke-width:0.26458332px;stroke-linecap:butt;stroke-linejoin:miter;stroke-opacity:1"
       d="m 496.81169,-206.17678 -7.8617,-183.68155 47.625,-13.75833 5.29167,214.84166 z"
       id="path1897"
       inkscape:connector-curvature="0"
       sodipodi:nodetypes="ccccc" />
    <path
       style="fill:#666666;fill-rule:evenodd;stroke:#000000;stroke-width:0.26458332px;stroke-linecap:butt;stroke-linejoin:miter;stroke-opacity:1"
       d="m 413.80833,-162.31666 33.54694,-10.41798 3.49472,-218.18202 -58.20833,-14.81667 z"
       id="path1895"
       inkscape:connector-curvature="0"
       sodipodi:nodetypes="ccccc" />
    <path
       style="fill:#cccccc;fill-rule:evenodd;stroke:#000000;stroke-width:0.26458332px;stroke-linecap:butt;stroke-linejoin:miter;stroke-opacity:1"
       d="m 782.10832,-177.13332 4.23334,297.39165 61.38333,19.05 1.05833,-317.5 z"
       id="path1893"
       inkscape:connector-curvature="0"
       sodipodi:nodetypes="ccccc" />
    <path
       style="fill:#999999;fill-rule:evenodd;stroke:#000000;stroke-width:0.26458332px;stroke-linecap:butt;stroke-linejoin:miter;stroke-opacity:1"
       d="m 496.81171,-206.17677 375.25494,8.93511 6.35,34.925 -388.40832,-2.11667 z"
       id="path1889"
       inkscape:connector-curvature="0"
       sodipodi:nodetypes="ccccc" />
    <path
       style="fill:#b3b3b3;fill-rule:evenodd;stroke:#000000;stroke-width:0.21263589px;stroke-linecap:butt;stroke-linejoin:miter;stroke-opacity:1"
       d="M 412.14505,-188.18511 397.9111,35.846783 457.84346,38.743748 447.35529,-172.73463 Z"
       id="path1870"
       inkscape:connector-curvature="0"
       sodipodi:nodetypes="ccccc" />
    <path
       style="fill:#999999;fill-rule:evenodd;stroke:#000000;stroke-width:0.26458332px;stroke-linecap:butt;stroke-linejoin:miter;stroke-opacity:1"
       d="M 453.48458,98.457515 857.25,114.96667 l 11.64165,76.2 -439.20832,-20.10834 z"
       id="path1887"
       inkscape:connector-curvature="0"
       sodipodi:nodetypes="ccccc" />
    <path
       style="fill:#999999;fill-rule:evenodd;stroke:#000000;stroke-width:0.6571818px;stroke-linecap:butt;stroke-linejoin:miter;stroke-opacity:1"
       d="m 402.54189,408.51693 -8.92253,-287.906 59.86523,-22.153415 -10.19092,341.749565 z"
       id="path1868"
       inkscape:connector-curvature="0"
       sodipodi:nodetypes="ccccc" />
    <path
       style="fill:#808080;fill-rule:evenodd;stroke:#000000;stroke-width:0.26458332px;stroke-linecap:butt;stroke-linejoin:miter;stroke-opacity:1"
       d="m 117.59859,294.86184 18.70886,-2.13815 -14.96709,-364.555635 -17.63978,46.504893 z"
       id="path1749"
       inkscape:connector-curvature="0"
       sodipodi:nodetypes="ccccc" />
    <path
       style="fill:#666666;fill-rule:evenodd;stroke:#000000;stroke-width:0.26458332px;stroke-linecap:butt;stroke-linejoin:miter;stroke-opacity:1"
       d="m 236.71185,-94.196513 97.07171,9.825566 6.4706,31.327201 -111.38958,-2.116667 z"
       id="path1858"
       inkscape:connector-curvature="0"
       sodipodi:nodetypes="ccccc" />
    <path
       style="fill:#808080;fill-rule:evenodd;stroke:#000000;stroke-width:0.26458332px;stroke-linecap:butt;stroke-linejoin:miter;stroke-opacity:1"
       d="m 174.7855,294.11993 17.10525,-345.84678 44.8211,-42.469663 -20.4194,389.519143 z"
       id="path1717"
       inkscape:connector-curvature="0"
       sodipodi:nodetypes="ccccc" />
    <path
       style="fill:#808080;fill-rule:evenodd;stroke:#000000;stroke-width:0.26458332px;stroke-linecap:butt;stroke-linejoin:miter;stroke-opacity:1"
       d="M 153.94725,-124.21677 94.613411,3.0035229 10.690781,-103.90429 101.02788,-171.79073 Z"
       id="path1753"
       inkscape:connector-curvature="0"
       sodipodi:nodetypes="ccccc" />
    <path
       style="fill:#999999;fill-rule:evenodd;stroke:#000000;stroke-width:0.19447547px;stroke-linecap:butt;stroke-linejoin:miter;stroke-opacity:1"
       d="m -21.733077,291.67125 1.644386,52.0656 359.059111,-3.69373 -4.13691,-48.37187 z"
       id="path1862"
       inkscape:connector-curvature="0"
       sodipodi:nodetypes="ccccc" />
    <path
       style="fill:#999999;fill-rule:evenodd;stroke:#000000;stroke-width:0.31882706px;stroke-linecap:butt;stroke-linejoin:miter;stroke-opacity:1"
       d="M 300.13681,-66.369531 296.2143,448.86985 h 50.08163 l -6.04177,-501.913596 z"
       id="path1860"
       inkscape:connector-curvature="0"
       sodipodi:nodetypes="ccccc" />
    <path
       style="fill:#999999;fill-rule:evenodd;stroke:#000000;stroke-width:0.19447547px;stroke-linecap:butt;stroke-linejoin:miter;stroke-opacity:1"
       d="m 200.64552,406.43338 1.64439,52.0656 359.05911,-3.69373 -4.13689,-48.37187 z"
       id="path1862-6"
       inkscape:connector-curvature="0"
       sodipodi:nodetypes="ccccc" />
    <path
       style="fill:#b3b3b3;fill-rule:evenodd;stroke:#000000;stroke-width:0.26458332px;stroke-linecap:butt;stroke-linejoin:miter;stroke-opacity:1"
       d="m 283.62642,-145.27761 166.88308,14.96709 v -74.83547 l -180.35346,2.24507 z"
       id="path1864"
       inkscape:connector-curvature="0"
       sodipodi:nodetypes="ccccc" />
    <path
       style="fill:#808080;fill-rule:evenodd;stroke:#000000;stroke-width:0.42652673px;stroke-linecap:butt;stroke-linejoin:miter;stroke-opacity:1"
       d="m 101.02788,-171.79073 11.22532,68.27056 192.42572,-43.42359 -34.52288,-55.95716 z"
       id="path1856"
       inkscape:connector-curvature="0"
       sodipodi:nodetypes="ccccc" />
    <path
       style="fill:#cccccc;fill-rule:evenodd;stroke:#000000;stroke-width:0.23270801px;stroke-linecap:butt;stroke-linejoin:miter;stroke-opacity:1"
       d="m 731.29197,58.893217 1.06106,-171.483787 h 9.54952 l 2.12211,170.667198 z"
       id="path1891"
       inkscape:connector-curvature="0"
       sodipodi:nodetypes="ccccc" />
    <path
       style="font-style:normal;font-weight:normal;font-size:40px;line-height:125%;font-family:sans-serif;letter-spacing:0px;word-spacing:0px;fill:#000000;fill-opacity:1;stroke:none;stroke-width:0.26458332px;stroke-linecap:butt;stroke-linejoin:miter;stroke-opacity:1"
       id="path1791"
       d="m 669.34869,-185.05938 h 1.55546 l 1.96887,5.25032 1.97921,-5.25032 h 1.55546 v 7.71529 h -1.01802 v -6.77478 l -1.98955,5.29166 h -1.04903 l -1.98954,-5.29166 v 6.77478 h -1.01286 z m -5.19865,0.70796 -1.80867,0.8475 -0.66663,2.30993 0.66663,2.30477 1.80867,0.84749 1.79834,-0.84749 0.66663,-2.30477 -0.66663,-2.30993 z m 0,-0.84749 2.59416,1.09037 0.97152,2.91455 -0.97152,2.91455 -2.59416,1.08521 -2.60449,-1.08521 -0.97152,-2.91455 0.97152,-2.91455 z m -4.75423,0.7338 v 1.10071 l -1.12655,-0.7338 -1.26607,-0.24288 -2.02571,0.81132 -0.7028,2.33577 0.7028,2.33578 2.02571,0.80615 1.26607,-0.24288 1.12655,-0.7338 v 1.09037 l -1.16272,0.5581 -1.29191,0.18604 -2.75952,-1.0697 -1.00769,-2.93006 1.00769,-2.93005 2.75952,-1.07487 1.30225,0.18604 z m -9.05371,5.80844 h 1.09037 v 1.31258 h -1.09037 z m -6.79028,-6.40271 h 4.87825 v 0.8785 h -3.83439 v 2.28409 h 3.6742 v 0.8785 h -3.6742 v 2.7957 h 3.92741 v 0.8785 h -4.97127 z m -1.62264,0.59427 v 1.10071 l -1.12655,-0.7338 -1.26607,-0.24288 -2.02572,0.81132 -0.7028,2.33577 0.7028,2.33578 2.02572,0.80615 1.26607,-0.24288 1.12655,-0.7338 v 1.09037 l -1.16272,0.5581 -1.29191,0.18604 -2.75953,-1.0697 -1.00769,-2.93006 1.00769,-2.93005 2.75953,-1.07487 1.30224,0.18604 z m -13.69426,-0.59427 h 1.4056 l 3.42098,6.45438 v -6.45438 h 1.01286 v 7.71529 h -1.4056 l -3.42098,-6.45439 v 6.45439 h -1.01286 z m -4.65605,1.02836 -1.41593,3.83955 h 2.83704 z m -0.58911,-1.02836 h 1.18339 l 2.94039,7.71529 h -1.0852 l -0.7028,-1.97921 h -3.47782 l -0.7028,1.97921 h -1.10071 z m -8.1287,0 h 1.04387 v 6.83679 h 3.75687 v 0.8785 h -4.80074 z m -7.91683,0 h 1.4056 l 3.42098,6.45438 v -6.45438 h 1.01286 v 7.71529 h -1.4056 l -3.42098,-6.45439 v 6.45439 h -1.01286 z m -6.69726,0 h 4.87825 v 0.8785 h -3.83439 v 2.28409 h 3.67419 v 0.8785 h -3.67419 v 2.7957 h 3.92741 v 0.8785 h -4.97127 z m -5.34335,0.85782 v 2.89905 h 1.31259 l 1.12654,-0.37724 0.39791,-1.07487 -0.39791,-1.0697 -1.12654,-0.37724 z m -1.04386,-0.85782 h 2.35645 l 1.95853,0.58911 0.66663,1.71565 -0.66663,1.726 -1.95853,0.58394 h -1.31259 v 3.10059 h -1.04386 z m -5.34334,0.85782 v 2.89905 h 1.31258 l 1.12654,-0.37724 0.39791,-1.07487 -0.39791,-1.0697 -1.12654,-0.37724 z m -1.04387,-0.85782 h 2.35645 l 1.95853,0.58911 0.66663,1.71565 -0.66663,1.726 -1.95853,0.58394 h -1.31258 v 3.10059 h -1.04387 z m -4.65605,1.02836 -1.41593,3.83955 h 2.83704 z m -0.58911,-1.02836 h 1.1834 l 2.94038,7.71529 h -1.0852 l -0.7028,-1.97921 h -3.47782 l -0.7028,1.97921 h -1.10071 z m -9.94771,0 h 1.04387 v 3.16259 h 3.79305 v -3.16259 h 1.04386 v 7.71529 h -1.04386 v -3.6742 h -3.79305 v 3.6742 h -1.04387 z"
       inkscape:connector-curvature="0"
       sodipodi:nodetypes="ccccccccccccccccccccccccccccccccccccccccccccccccccccccccccccccccccccccccccccccccccccccccccccccccccccccccccccccccccccccccccccccccccccccccccccccccccccccccccccccccccccccccccccccccccccccccccccccccccccccccccccc" />
    <path
       style="fill:#cccccc;fill-rule:evenodd;stroke:#000000;stroke-width:0.26458332px;stroke-linecap:butt;stroke-linejoin:miter;stroke-opacity:1"
       d="m 473.45629,-464.69342 -13.96196,6.66318 9.14625,16.9022 13.36403,-13.29981 z"
       id="path1903"
       inkscape:connector-curvature="0"
       sodipodi:nodetypes="ccccc" />
    <path
       style="font-style:normal;font-weight:normal;font-size:40px;line-height:125%;font-family:sans-serif;letter-spacing:0px;word-spacing:0px;fill:#000000;fill-opacity:1;stroke:none;stroke-width:0.26458332px;stroke-linecap:butt;stroke-linejoin:miter;stroke-opacity:1"
       sodipodi:nodetypes="cccccccccccccccccccccccccccc"
       inkscape:connector-curvature="0"
       id="path1925"
       d="m 125.06859,302.93625 v 2.8267 h 1.67434 l 1.24539,-0.34623 0.40826,-1.0697 -0.40826,-1.06454 -1.24539,-0.34623 z m 0,-3.17293 v 2.32543 h 1.54514 l 1.13689,-0.28421 0.37722,-0.8785 -0.37722,-0.87334 -1.13689,-0.28938 z m -1.04386,-0.85783 h 2.66653 l 1.83967,0.49609 0.64595,1.41077 -0.33072,1.12654 -0.97153,0.52193 1.19372,0.69247 0.42892,1.30741 -0.70279,1.5968 -1.99988,0.56328 h -2.76987 z" />
    <path
       style="font-style:normal;font-weight:normal;font-size:40px;line-height:125%;font-family:sans-serif;letter-spacing:0px;word-spacing:0px;fill:#000000;fill-opacity:1;stroke:none;stroke-width:0.26458332px;stroke-linecap:butt;stroke-linejoin:miter;stroke-opacity:1"
       sodipodi:nodetypes="ccccccccccccccc"
       inkscape:connector-curvature="0"
       id="path1927"
       d="m 133.64689,307.15821 -0.78547,1.34876 -1.0232,0.31522 h -0.75964 v -0.79581 h 0.55811 l 0.60978,-0.18604 0.48059,-0.8785 0.17053,-0.43408 -2.34096,-5.69474 h 1.0077 l 1.80869,4.52686 1.80866,-4.52686 h 1.00769 z" />
    <path
       style="font-style:normal;font-weight:normal;font-size:40px;line-height:125%;font-family:sans-serif;letter-spacing:0px;word-spacing:0px;fill:#000000;fill-opacity:1;stroke:none;stroke-width:0.26458332px;stroke-linecap:butt;stroke-linejoin:miter;stroke-opacity:1"
       sodipodi:nodetypes="ccccccccccccccccccccccccccccccccccccccccccccccccccccccc"
       inkscape:connector-curvature="0"
       id="path1929"
       d="m 143.81165,303.84575 0.3669,1.16272 1.00769,0.41858 0.99735,-0.42374 0.36692,-1.15756 -0.37208,-1.14721 -1.00254,-0.42892 -0.99734,0.42375 z m 2.81636,1.54513 -0.71313,0.58911 -0.93017,0.18604 -1.44696,-0.64079 -0.55292,-1.67949 0.55811,-1.67948 1.44177,-0.64595 0.93532,0.19636 0.70798,0.58395 v -0.67696 h 0.73898 v 3.80338 l 1.17821,-0.68729 0.42892,-1.49345 -0.16536,-1.0387 -0.49094,-0.89917 -1.31257,-1.03353 -1.6795,-0.36173 -1.21954,0.17053 -1.08006,0.49609 -1.27121,1.38493 -0.45477,1.85002 0.29456,1.53996 0.86299,1.26607 1.25574,0.81649 1.52445,0.28422 1.30741,-0.22738 1.18341,-0.64079 0.46508,0.57361 -1.41076,0.76481 -1.54514,0.26872 -1.8035,-0.34107 -1.50895,-0.98185 -1.00769,-1.49345 -0.34623,-1.82934 0.35139,-1.79317 1.00253,-1.49862 1.53996,-1.00252 1.85002,-0.3514 2.03088,0.44958 1.57613,1.27641 0.58912,1.10071 0.20669,1.2299 -0.82166,2.14457 -2.26859,0.81649 z" />
    <path
       style="font-style:normal;font-weight:normal;font-size:40px;line-height:125%;font-family:sans-serif;letter-spacing:0px;word-spacing:0px;fill:#000000;fill-opacity:1;stroke:none;stroke-width:0.26458332px;stroke-linecap:butt;stroke-linejoin:miter;stroke-opacity:1"
       sodipodi:nodetypes="cccccccc"
       inkscape:connector-curvature="0"
       id="path1931"
       d="m 150.77247,300.83302 h 1.00769 l 1.80866,4.85758 1.8087,-4.85758 h 1.00766 l -2.1704,5.78776 h -1.29191 z" />
    <path
       style="font-style:normal;font-weight:normal;font-size:40px;line-height:125%;font-family:sans-serif;letter-spacing:0px;word-spacing:0px;fill:#000000;fill-opacity:1;stroke:none;stroke-width:0.26458332px;stroke-linecap:butt;stroke-linejoin:miter;stroke-opacity:1"
       sodipodi:nodetypes="cccccccccccccccccccccc"
       inkscape:connector-curvature="0"
       id="path1933"
       d="m 162.66837,303.48919 v 0.46509 h -4.37181 l 0.58909,1.49861 1.47796,0.5116 1.05937,-0.13436 1.02319,-0.40308 v 0.89917 l -1.04904,0.33073 -1.09038,0.11369 -2.19622,-0.80615 -0.80616,-2.18075 0.7648,-2.25309 2.07222,-0.83716 1.84486,0.75448 z m -0.95083,-0.27905 -0.43926,-1.24541 -1.12655,-0.46509 -1.2764,0.44959 -0.54777,1.26607 z" />
    <path
       style="font-style:normal;font-weight:normal;font-size:40px;line-height:125%;font-family:sans-serif;letter-spacing:0px;word-spacing:0px;fill:#000000;fill-opacity:1;stroke:none;stroke-width:0.26458332px;stroke-linecap:butt;stroke-linejoin:miter;stroke-opacity:1"
       sodipodi:nodetypes="ccccccccccccccccccccccccccccccc"
       inkscape:connector-curvature="0"
       id="path1935"
       d="m 168.03756,303.65972 -0.42892,-1.60197 -1.19372,-0.56844 -1.19372,0.56844 -0.42375,1.60197 0.42375,1.5968 1.19372,0.56844 1.19372,-0.56844 z m 0.95083,2.24276 -0.65627,2.19625 -2.01022,0.72346 -0.94568,-0.0775 -0.86299,-0.22738 v -0.925 l 0.82682,0.33589 0.83199,0.10852 1.40044,-0.49092 0.46508,-1.47278 v -0.47026 l -0.75449,0.76481 -1.10069,0.25322 -1.71566,-0.81132 -0.65112,-2.14974 0.65112,-2.15491 1.71566,-0.81132 1.10069,0.25322 0.75449,0.76481 v -0.8785 h 0.95083 z" />
    <path
       style="font-style:normal;font-weight:normal;font-size:40px;line-height:125%;font-family:sans-serif;letter-spacing:0px;word-spacing:0px;fill:#000000;fill-opacity:1;stroke:none;stroke-width:0.26458332px;stroke-linecap:butt;stroke-linejoin:miter;stroke-opacity:1"
       sodipodi:nodetypes="cccccccccccccccccccccccccccccc"
       inkscape:connector-curvature="0"
       id="path1937"
       d="m 173.57727,303.7114 -1.59681,0.26355 -0.44442,0.89917 0.33073,0.80615 0.9095,0.29455 1.26609,-0.5581 0.48059,-1.49345 v -0.21187 z m 1.89654,-0.39275 v 3.30213 h -0.95086 v -0.8785 l -0.81132,0.78031 -1.18856,0.24805 -1.41592,-0.49609 -0.52194,-1.33842 0.65111,-1.47278 1.95337,-0.49609 h 1.33326 v -0.093 l -0.43408,-1.01286 -1.20922,-0.36174 -0.96637,0.11886 -0.90432,0.35657 v -0.8785 l 1.01286,-0.29973 0.95601,-0.10335 1.87585,0.65112 z" />
    <path
       style="font-style:normal;font-weight:normal;font-size:40px;line-height:125%;font-family:sans-serif;letter-spacing:0px;word-spacing:0px;fill:#000000;fill-opacity:1;stroke:none;stroke-width:0.26458332px;stroke-linecap:butt;stroke-linejoin:miter;stroke-opacity:1"
       sodipodi:nodetypes="ccccccccccccccc"
       inkscape:connector-curvature="0"
       id="path1939"
       d="m 180.7913,301.72185 -0.3514,-0.13436 -0.41341,-0.0465 -1.24023,0.5271 -0.42892,1.50378 v 3.04891 h -0.95602 v -5.78776 h 0.95602 v 0.89917 l 0.78031,-0.78032 1.1679,-0.25838 0.21704,0.0155 0.26355,0.0362 z" />
    <path
       style="font-style:normal;font-weight:normal;font-size:40px;line-height:125%;font-family:sans-serif;letter-spacing:0px;word-spacing:0px;fill:#000000;fill-opacity:1;stroke:none;stroke-width:0.26458332px;stroke-linecap:butt;stroke-linejoin:miter;stroke-opacity:1"
       sodipodi:nodetypes="ccccccccccccccccccccccc"
       inkscape:connector-curvature="0"
       id="path1941"
       d="m 185.42151,301.71152 v -3.13159 h 0.95086 v 8.04085 h -0.95086 v -0.86817 l -0.75965,0.76998 -1.09553,0.24805 -1.71048,-0.83716 -0.6563,-2.20141 0.6563,-2.20142 1.71048,-0.83716 1.09553,0.25322 z m -3.24012,2.02055 0.42892,1.64847 1.18856,0.59428 1.18856,-0.59428 0.43408,-1.64847 -0.43408,-1.64332 -1.18856,-0.59944 -1.18856,0.59944 z" />
    <path
       style="font-style:normal;font-weight:normal;font-size:40px;line-height:125%;font-family:sans-serif;letter-spacing:0px;word-spacing:0px;fill:#000000;fill-opacity:1;stroke:none;stroke-width:0.26458332px;stroke-linecap:butt;stroke-linejoin:miter;stroke-opacity:1"
       sodipodi:nodetypes="ccccc"
       inkscape:connector-curvature="0"
       id="path1943"
       d="m 192.72856,308.37778 v 0.73897 h -5.49836 v -0.73897 z" />
    <path
       style="font-style:normal;font-weight:normal;font-size:40px;line-height:125%;font-family:sans-serif;letter-spacing:0px;word-spacing:0px;fill:#000000;fill-opacity:1;stroke:none;stroke-width:0.26458332px;stroke-linecap:butt;stroke-linejoin:miter;stroke-opacity:1"
       sodipodi:nodetypes="ccccccccccccccccc"
       inkscape:connector-curvature="0"
       id="path1945"
       d="m 198.43363,303.12745 v 3.49333 h -0.95083 v -3.46232 l -0.32041,-1.2299 -0.96118,-0.40824 -1.21438,0.49092 -0.44442,1.33842 v 3.27112 h -0.95602 v -5.78776 h 0.95602 v 0.89917 l 0.80097,-0.78032 1.06971,-0.25838 1.50895,0.62012 z" />
    <path
       style="font-style:normal;font-weight:normal;font-size:40px;line-height:125%;font-family:sans-serif;letter-spacing:0px;word-spacing:0px;fill:#000000;fill-opacity:1;stroke:none;stroke-width:0.26458332px;stroke-linecap:butt;stroke-linejoin:miter;stroke-opacity:1"
       sodipodi:nodetypes="cccccccccccccccccc"
       inkscape:connector-curvature="0"
       id="path1947"
       d="m 202.58325,301.49964 -1.20922,0.59945 -0.44442,1.63298 0.43926,1.63814 1.21438,0.59428 1.20407,-0.59945 0.44442,-1.63297 -0.44442,-1.62781 z m 0,-0.80615 1.94821,0.80615 0.70797,2.23243 -0.70797,2.23242 -1.94821,0.80615 -1.95336,-0.80615 -0.70281,-2.23242 0.70281,-2.23243 z" />
    <path
       d="m 58.700015,256.21175 v 1.46761 l -1.50206,-0.9784 -1.688097,-0.32384 -2.700954,1.08176 -0.937067,3.11436 0.937067,3.11437 2.700954,1.07487 1.688097,-0.32384 1.50206,-0.97841 v 1.45383 l -1.550291,0.74414 -1.722549,0.24805 -3.679362,-1.42627 -1.343588,-3.90674 1.343588,-3.90674 3.679362,-1.43316 1.736328,0.24805 z"
       style="font-style:normal;font-weight:normal;font-size:53.33333588px;line-height:125%;font-family:sans-serif;text-align:center;letter-spacing:0px;word-spacing:0px;text-anchor:middle;fill:#000000;fill-opacity:1;stroke:none;stroke-width:0.26458332px;stroke-linecap:butt;stroke-linejoin:miter;stroke-opacity:1"
       id="path2053"
       inkscape:connector-curvature="0"
       sodipodi:nodetypes="ccccccccccccccccccc" />
    <path
       d="m 63.798758,258.87826 -1.612304,0.79926 -0.592558,2.1773 0.585665,2.18419 1.619197,0.79237 1.605413,-0.79926 0.592558,-2.1773 -0.592558,-2.17041 z m 0,-1.07487 2.5976,1.07487 0.943957,2.97656 -0.943957,2.97656 -2.5976,1.07487 -2.604492,-1.07487 -0.937067,-2.97656 0.937067,-2.97656 z"
       style="font-style:normal;font-weight:normal;font-size:53.33333588px;line-height:125%;font-family:sans-serif;text-align:center;letter-spacing:0px;word-spacing:0px;text-anchor:middle;fill:#000000;fill-opacity:1;stroke:none;stroke-width:0.26458332px;stroke-linecap:butt;stroke-linejoin:miter;stroke-opacity:1"
       id="path2055"
       inkscape:connector-curvature="0"
       sodipodi:nodetypes="cccccccccccccccccc" />
    <path
       d="m 75.849701,261.04867 v 4.65777 h -1.267793 v -4.61643 l -0.427194,-1.63987 -1.281575,-0.54432 -1.619195,0.65456 -0.592555,1.78456 v 4.3615 h -1.274686 v -7.71702 h 1.274686 v 1.19889 l 1.06798,-1.04041 1.426268,-0.34451 2.011936,0.82682 z"
       style="font-style:normal;font-weight:normal;font-size:53.33333588px;line-height:125%;font-family:sans-serif;text-align:center;letter-spacing:0px;word-spacing:0px;text-anchor:middle;fill:#000000;fill-opacity:1;stroke:none;stroke-width:0.26458332px;stroke-linecap:butt;stroke-linejoin:miter;stroke-opacity:1"
       id="path2057"
       inkscape:connector-curvature="0"
       sodipodi:nodetypes="ccccccccccccccccc" />
    <path
       d="m 79.646197,255.79834 v 2.19108 h 2.611382 v 0.9853 h -2.611382 v 4.18923 l 0.254936,1.21268 1.054198,0.26871 h 1.302248 v 1.0611 h -1.302248 l -2.025716,-0.54433 -0.558104,-1.99816 v -4.18923 h -0.930177 v -0.9853 h 0.930177 v -2.19108 z"
       style="font-style:normal;font-weight:normal;font-size:53.33333588px;line-height:125%;font-family:sans-serif;text-align:center;letter-spacing:0px;word-spacing:0px;text-anchor:middle;fill:#000000;fill-opacity:1;stroke:none;stroke-width:0.26458332px;stroke-linecap:butt;stroke-linejoin:miter;stroke-opacity:1"
       id="path2059"
       inkscape:connector-curvature="0"
       sodipodi:nodetypes="ccccccccccccccccccc" />
    <path
       d="m 88.40363,259.17453 -0.468532,-0.17914 -0.551215,-0.062 -1.653646,0.7028 -0.571886,2.00504 v 4.06522 h -1.274686 v -7.71702 h 1.274686 v 1.19889 l 1.040418,-1.04041 1.557185,-0.34451 0.289388,0.0207 0.351398,0.0482 z"
       style="font-style:normal;font-weight:normal;font-size:53.33333588px;line-height:125%;font-family:sans-serif;text-align:center;letter-spacing:0px;word-spacing:0px;text-anchor:middle;fill:#000000;fill-opacity:1;stroke:none;stroke-width:0.26458332px;stroke-linecap:butt;stroke-linejoin:miter;stroke-opacity:1"
       id="path2061"
       inkscape:connector-curvature="0"
       sodipodi:nodetypes="ccccccccccccccc" />
    <path
       d="m 92.434393,258.87826 -1.612305,0.79926 -0.592556,2.1773 0.585666,2.18419 1.619195,0.79237 1.605415,-0.79926 0.592555,-2.1773 -0.592555,-2.17041 z m 0,-1.07487 2.597602,1.07487 0.943957,2.97656 -0.943957,2.97656 -2.597602,1.07487 -2.604492,-1.07487 -0.937067,-2.97656 0.937067,-2.97656 z"
       style="font-style:normal;font-weight:normal;font-size:53.33333588px;line-height:125%;font-family:sans-serif;text-align:center;letter-spacing:0px;word-spacing:0px;text-anchor:middle;fill:#000000;fill-opacity:1;stroke:none;stroke-width:0.26458332px;stroke-linecap:butt;stroke-linejoin:miter;stroke-opacity:1"
       id="path2063"
       inkscape:connector-curvature="0"
       sodipodi:nodetypes="cccccccccccccccccc" />
    <path
       d="m 98.070565,254.9853 h 1.267796 v 10.72114 h -1.267796 z"
       style="font-style:normal;font-weight:normal;font-size:53.33333588px;line-height:125%;font-family:sans-serif;text-align:center;letter-spacing:0px;word-spacing:0px;text-anchor:middle;fill:#000000;fill-opacity:1;stroke:none;stroke-width:0.26458332px;stroke-linecap:butt;stroke-linejoin:miter;stroke-opacity:1"
       id="path2065"
       inkscape:connector-curvature="0"
       sodipodi:nodetypes="ccccc" />
    <path
       d="m 106.90379,258.2168 v 1.19889 l -1.11621,-0.41341 -1.19889,-0.13781 -1.41938,0.28939 -0.46853,0.86817 0.33762,0.69591 1.35736,0.47542 0.43408,0.0965 1.91548,0.81994 0.57188,1.4676 -0.85438,1.70188 -2.33578,0.62701 -1.29535,-0.12402 -1.41249,-0.35829 v -1.30914 l 1.38493,0.55122 1.35048,0.17914 1.37803,-0.30317 0.48232,-0.86816 -0.3514,-0.79237 -1.52273,-0.53055 -0.44098,-0.10335 -1.70187,-0.75792 -0.52366,-1.41249 0.7717,-1.68121 2.19108,-0.59255 1.32292,0.10335 z"
       style="font-style:normal;font-weight:normal;font-size:53.33333588px;line-height:125%;font-family:sans-serif;text-align:center;letter-spacing:0px;word-spacing:0px;text-anchor:middle;fill:#000000;fill-opacity:1;stroke:none;stroke-width:0.26458332px;stroke-linecap:butt;stroke-linejoin:miter;stroke-opacity:1"
       id="path2067"
       inkscape:connector-curvature="0"
       sodipodi:nodetypes="ccccccccccccccccccccccccccccc" />
    <path
       d="m 109.66676,263.95633 h 1.45383 v 1.75011 h -1.45383 z m 0,-5.54661 h 1.45383 v 1.75011 h -1.45383 z"
       style="font-style:normal;font-weight:normal;font-size:53.33333588px;line-height:125%;font-family:sans-serif;text-align:center;letter-spacing:0px;word-spacing:0px;text-anchor:middle;fill:#000000;fill-opacity:1;stroke:none;stroke-width:0.26458332px;stroke-linecap:butt;stroke-linejoin:miter;stroke-opacity:1"
       id="path2069"
       inkscape:connector-curvature="0"
       sodipodi:nodetypes="cccccccccc" />
    <path
       d="m 64.418876,274.00223 -2.411569,1.12999 -0.888833,3.07992 0.888833,3.07302 2.411569,1.12999 2.397786,-1.12999 0.888833,-3.07302 -0.888833,-3.07992 z m 1.949923,9.15706 1.83279,2.00505 h -1.681207 l -1.52273,-1.64676 -0.351401,0.0207 -0.227375,0.007 -3.472657,-1.44694 -1.295357,-3.88607 1.295357,-3.88607 3.472657,-1.45383 3.458874,1.45383 1.295357,3.88607 -0.723471,3.06614 -2.080837,1.88102 z"
       style="font-style:normal;font-weight:normal;font-size:53.33333588px;line-height:125%;font-family:sans-serif;text-align:center;letter-spacing:0px;word-spacing:0px;text-anchor:middle;fill:#000000;fill-opacity:1;stroke:none;stroke-width:0.26458332px;stroke-linecap:butt;stroke-linejoin:miter;stroke-opacity:1"
       id="path2071"
       inkscape:connector-curvature="0"
       sodipodi:nodetypes="cccccccccccccccccccccccc" />
    <path
       d="m 70.434011,273.05827 h 1.405599 l 2.163522,8.69542 2.156629,-8.69542 h 1.564074 l 2.163519,8.69542 2.156629,-8.69542 h 1.412489 l -2.583821,10.28706 h -1.75011 l -2.170409,-8.92969 -2.19108,8.92969 h -1.750108 z"
       style="font-style:normal;font-weight:normal;font-size:53.33333588px;line-height:125%;font-family:sans-serif;text-align:center;letter-spacing:0px;word-spacing:0px;text-anchor:middle;fill:#000000;fill-opacity:1;stroke:none;stroke-width:0.26458332px;stroke-linecap:butt;stroke-linejoin:miter;stroke-opacity:1"
       id="path2073"
       inkscape:connector-curvature="0"
       sodipodi:nodetypes="cccccccccccccc" />
    <path
       d="m 89.47161,274.00223 -2.411569,1.12999 -0.888833,3.07992 0.888833,3.07302 2.411569,1.12999 2.397786,-1.12999 0.888833,-3.07302 -0.888833,-3.07992 z m 0,-1.12999 3.458874,1.45383 1.295357,3.88607 -1.295357,3.88606 -3.458874,1.44694 -3.472656,-1.44694 -1.295358,-3.88606 1.295358,-3.88607 z"
       style="font-style:normal;font-weight:normal;font-size:53.33333588px;line-height:125%;font-family:sans-serif;text-align:center;letter-spacing:0px;word-spacing:0px;text-anchor:middle;fill:#000000;fill-opacity:1;stroke:none;stroke-width:0.26458332px;stroke-linecap:butt;stroke-linejoin:miter;stroke-opacity:1"
       id="path2075"
       inkscape:connector-curvature="0"
       sodipodi:nodetypes="cccccccccccccccccc" />
    <path
       d="m 97.794959,274.20204 v 3.8654 h 1.750111 l 1.50206,-0.50298 0.53055,-1.43316 -0.53055,-1.42627 -1.50206,-0.50299 z m -1.391816,-1.14377 h 3.141927 l 2.61138,0.78549 0.88884,2.28754 -0.88884,2.30132 -2.61138,0.7786 h -1.750111 v 4.13411 h -1.391816 z"
       style="font-style:normal;font-weight:normal;font-size:53.33333588px;line-height:125%;font-family:sans-serif;text-align:center;letter-spacing:0px;word-spacing:0px;text-anchor:middle;fill:#000000;fill-opacity:1;stroke:none;stroke-width:0.26458332px;stroke-linecap:butt;stroke-linejoin:miter;stroke-opacity:1"
       id="path2077"
       inkscape:connector-curvature="0"
       sodipodi:nodetypes="cccccccccccccccccc" />
  </g>
</svg>
